<svg width="473" height="22" viewBox="0 0 473 22" fill="none" xmlns="http://www.w3.org/2000/svg">
<path d="M0.87 17V1.38H2.85V8.134H4.94L10.088 1.38H12.376L6.568 8.948L12.772 17H10.352L4.984 9.938H2.85V17H0.87ZM13.9901 13.678C13.9901 12.9447 14.1954 12.314 14.6061 11.786C15.0314 11.2433 15.6107 10.8253 16.3441 10.532C17.0774 10.2387 17.9281 10.092 18.8961 10.092C19.4094 10.092 19.9521 10.136 20.5241 10.224C21.0961 10.2973 21.6021 10.4147 22.0421 10.576V9.74C22.0421 8.86 21.7781 8.17067 21.2501 7.672C20.7221 7.15867 19.9741 6.902 19.0061 6.902C18.3754 6.902 17.7667 7.01933 17.1801 7.254C16.6081 7.474 15.9994 7.79667 15.3541 8.222L14.6501 6.858C15.3981 6.34467 16.1461 5.96333 16.8941 5.714C17.6421 5.45 18.4194 5.318 19.2261 5.318C20.6927 5.318 21.8514 5.72867 22.7021 6.55C23.5527 7.35667 23.9781 8.486 23.9781 9.938V14.8C23.9781 15.0347 24.0221 15.2107 24.1101 15.328C24.2127 15.4307 24.3741 15.4893 24.5941 15.504V17C24.4034 17.0293 24.2347 17.0513 24.0881 17.066C23.9561 17.0807 23.8461 17.088 23.7581 17.088C23.3034 17.088 22.9587 16.9633 22.7241 16.714C22.5041 16.4647 22.3794 16.2007 22.3501 15.922L22.3061 15.196C21.8074 15.8413 21.1547 16.34 20.3481 16.692C19.5414 17.044 18.7421 17.22 17.9501 17.22C17.1874 17.22 16.5054 17.066 15.9041 16.758C15.3027 16.4353 14.8334 16.01 14.4961 15.482C14.1587 14.9393 13.9901 14.338 13.9901 13.678ZM21.4701 14.492C21.6461 14.2867 21.7854 14.0813 21.8881 13.876C21.9907 13.656 22.0421 13.4727 22.0421 13.326V11.896C21.5874 11.72 21.1107 11.588 20.6121 11.5C20.1134 11.3973 19.6221 11.346 19.1381 11.346C18.1554 11.346 17.3561 11.544 16.7401 11.94C16.1387 12.3213 15.8381 12.8493 15.8381 13.524C15.8381 13.8907 15.9334 14.25 16.1241 14.602C16.3294 14.9393 16.6227 15.218 17.0041 15.438C17.4001 15.658 17.8841 15.768 18.4561 15.768C19.0574 15.768 19.6294 15.6507 20.1721 15.416C20.7147 15.1667 21.1474 14.8587 21.4701 14.492ZM27.0517 17V5.516H28.9877V10.246H30.2637L33.8717 5.516H36.0717L31.7817 11.082L36.5777 17H34.3337L30.2637 12.028H28.9877V17H27.0517ZM38.4599 17V5.538H40.3959V14.404L46.8199 5.516H48.5799V17H46.6439V8.31L40.3079 17H38.4599ZM56.7553 17.22C55.89 17.22 55.098 17.066 54.3793 16.758C53.6753 16.4353 53.0593 16.0027 52.5313 15.46C52.018 14.9027 51.6147 14.2647 51.3213 13.546C51.0427 12.8273 50.9033 12.0647 50.9033 11.258C50.9033 10.1727 51.1527 9.18267 51.6513 8.288C52.15 7.39333 52.8393 6.67467 53.7193 6.132C54.614 5.58933 55.6333 5.318 56.7773 5.318C57.936 5.318 58.9407 5.59667 59.7913 6.154C60.6567 6.69667 61.324 7.41533 61.7933 8.31C62.2773 9.19 62.5193 10.1433 62.5193 11.17C62.5193 11.3167 62.512 11.4633 62.4973 11.61C62.4973 11.742 62.49 11.8447 62.4753 11.918H52.9493C53.008 12.666 53.2133 13.3333 53.5653 13.92C53.932 14.492 54.4013 14.9467 54.9733 15.284C55.5453 15.6067 56.1613 15.768 56.8213 15.768C57.5253 15.768 58.1853 15.592 58.8013 15.24C59.432 14.888 59.8647 14.426 60.0993 13.854L61.7713 14.316C61.522 14.8733 61.148 15.372 60.6493 15.812C60.1653 16.252 59.586 16.5967 58.9113 16.846C58.2513 17.0953 57.5327 17.22 56.7553 17.22ZM52.8833 10.576H60.7153C60.6567 9.828 60.444 9.168 60.0773 8.596C59.7107 8.024 59.2413 7.57667 58.6693 7.254C58.0973 6.93133 57.4667 6.77 56.7773 6.77C56.1027 6.77 55.4793 6.93133 54.9073 7.254C54.3353 7.57667 53.866 8.024 53.4993 8.596C53.1473 9.168 52.942 9.828 52.8833 10.576ZM70.2138 17V5.516H79.7398V17H77.8038V7.232H72.1498V17H70.2138ZM89.0506 17.22C88.112 17.22 87.276 16.9853 86.5426 16.516C85.8093 16.0467 85.23 15.4527 84.8046 14.734V21.686H82.8686V5.516H84.5846V7.672C85.0393 6.968 85.6333 6.40333 86.3666 5.978C87.1 5.538 87.8993 5.318 88.7646 5.318C89.5566 5.318 90.2826 5.47933 90.9426 5.802C91.6026 6.12467 92.1746 6.56467 92.6586 7.122C93.1426 7.67933 93.5166 8.31733 93.7806 9.036C94.0593 9.74 94.1986 10.4807 94.1986 11.258C94.1986 12.3433 93.9786 13.3407 93.5386 14.25C93.1133 15.1593 92.512 15.8853 91.7346 16.428C90.9573 16.956 90.0626 17.22 89.0506 17.22ZM88.4566 15.548C89.0286 15.548 89.542 15.4307 89.9966 15.196C90.466 14.9467 90.862 14.624 91.1846 14.228C91.522 13.8173 91.7786 13.3553 91.9546 12.842C92.1306 12.3287 92.2186 11.8007 92.2186 11.258C92.2186 10.686 92.116 10.1433 91.9106 9.63C91.72 9.11667 91.4413 8.662 91.0746 8.266C90.7226 7.87 90.3046 7.562 89.8206 7.342C89.3513 7.10733 88.838 6.99 88.2806 6.99C87.9286 6.99 87.562 7.056 87.1806 7.188C86.814 7.32 86.462 7.51067 86.1246 7.76C85.7873 7.99467 85.5013 8.266 85.2666 8.574C85.032 8.882 84.878 9.212 84.8046 9.564V12.842C85.0246 13.3407 85.318 13.7953 85.6846 14.206C86.0513 14.6167 86.4766 14.9467 86.9606 15.196C87.4446 15.4307 87.9433 15.548 88.4566 15.548ZM101.592 17.22C100.726 17.22 99.9417 17.066 99.2377 16.758C98.5337 16.4353 97.925 16.0027 97.4117 15.46C96.8983 14.9027 96.5023 14.2647 96.2237 13.546C95.945 12.8273 95.8057 12.072 95.8057 11.28C95.8057 10.4733 95.945 9.71067 96.2237 8.992C96.5023 8.27333 96.8983 7.64267 97.4117 7.1C97.925 6.54267 98.5337 6.11 99.2377 5.802C99.9563 5.47933 100.741 5.318 101.592 5.318C102.457 5.318 103.242 5.47933 103.946 5.802C104.65 6.11 105.258 6.54267 105.772 7.1C106.3 7.64267 106.703 8.27333 106.982 8.992C107.26 9.71067 107.4 10.4733 107.4 11.28C107.4 12.072 107.26 12.8273 106.982 13.546C106.703 14.2647 106.307 14.9027 105.794 15.46C105.28 16.0027 104.664 16.4353 103.946 16.758C103.242 17.066 102.457 17.22 101.592 17.22ZM97.7857 11.302C97.7857 12.094 97.9543 12.8127 98.2917 13.458C98.6437 14.1033 99.1057 14.6167 99.6777 14.998C100.25 15.3647 100.888 15.548 101.592 15.548C102.296 15.548 102.934 15.3573 103.506 14.976C104.092 14.5947 104.554 14.0813 104.892 13.436C105.244 12.776 105.42 12.05 105.42 11.258C105.42 10.466 105.244 9.74733 104.892 9.102C104.554 8.45667 104.092 7.94333 103.506 7.562C102.934 7.18067 102.296 6.99 101.592 6.99C100.888 6.99 100.25 7.188 99.6777 7.584C99.1057 7.96533 98.6437 8.47867 98.2917 9.124C97.9543 9.76933 97.7857 10.4953 97.7857 11.302ZM109.724 17V5.516H116.808V7.232H111.66V17H109.724ZM124.973 17.22C124.034 17.22 123.198 16.9853 122.465 16.516C121.731 16.0467 121.152 15.4527 120.727 14.734V21.686H118.791V5.516H120.507V7.672C120.961 6.968 121.555 6.40333 122.289 5.978C123.022 5.538 123.821 5.318 124.687 5.318C125.479 5.318 126.205 5.47933 126.865 5.802C127.525 6.12467 128.097 6.56467 128.581 7.122C129.065 7.67933 129.439 8.31733 129.703 9.036C129.981 9.74 130.121 10.4807 130.121 11.258C130.121 12.3433 129.901 13.3407 129.461 14.25C129.035 15.1593 128.434 15.8853 127.657 16.428C126.879 16.956 125.985 17.22 124.973 17.22ZM124.379 15.548C124.951 15.548 125.464 15.4307 125.919 15.196C126.388 14.9467 126.784 14.624 127.107 14.228C127.444 13.8173 127.701 13.3553 127.877 12.842C128.053 12.3287 128.141 11.8007 128.141 11.258C128.141 10.686 128.038 10.1433 127.833 9.63C127.642 9.11667 127.363 8.662 126.997 8.266C126.645 7.87 126.227 7.562 125.743 7.342C125.273 7.10733 124.76 6.99 124.203 6.99C123.851 6.99 123.484 7.056 123.103 7.188C122.736 7.32 122.384 7.51067 122.047 7.76C121.709 7.99467 121.423 8.266 121.189 8.574C120.954 8.882 120.8 9.212 120.727 9.564V12.842C120.947 13.3407 121.24 13.7953 121.607 14.206C121.973 14.6167 122.399 14.9467 122.883 15.196C123.367 15.4307 123.865 15.548 124.379 15.548ZM131.596 13.678C131.596 12.9447 131.801 12.314 132.212 11.786C132.637 11.2433 133.216 10.8253 133.95 10.532C134.683 10.2387 135.534 10.092 136.502 10.092C137.015 10.092 137.558 10.136 138.13 10.224C138.702 10.2973 139.208 10.4147 139.648 10.576V9.74C139.648 8.86 139.384 8.17067 138.856 7.672C138.328 7.15867 137.58 6.902 136.612 6.902C135.981 6.902 135.372 7.01933 134.786 7.254C134.214 7.474 133.605 7.79667 132.96 8.222L132.256 6.858C133.004 6.34467 133.752 5.96333 134.5 5.714C135.248 5.45 136.025 5.318 136.832 5.318C138.298 5.318 139.457 5.72867 140.308 6.55C141.158 7.35667 141.584 8.486 141.584 9.938V14.8C141.584 15.0347 141.628 15.2107 141.716 15.328C141.818 15.4307 141.98 15.4893 142.2 15.504V17C142.009 17.0293 141.84 17.0513 141.694 17.066C141.562 17.0807 141.452 17.088 141.364 17.088C140.909 17.088 140.564 16.9633 140.33 16.714C140.11 16.4647 139.985 16.2007 139.956 15.922L139.912 15.196C139.413 15.8413 138.76 16.34 137.954 16.692C137.147 17.044 136.348 17.22 135.556 17.22C134.793 17.22 134.111 17.066 133.51 16.758C132.908 16.4353 132.439 16.01 132.102 15.482C131.764 14.9393 131.596 14.338 131.596 13.678ZM139.076 14.492C139.252 14.2867 139.391 14.0813 139.494 13.876C139.596 13.656 139.648 13.4727 139.648 13.326V11.896C139.193 11.72 138.716 11.588 138.218 11.5C137.719 11.3973 137.228 11.346 136.744 11.346C135.761 11.346 134.962 11.544 134.346 11.94C133.744 12.3213 133.444 12.8493 133.444 13.524C133.444 13.8907 133.539 14.25 133.73 14.602C133.935 14.9393 134.228 15.218 134.61 15.438C135.006 15.658 135.49 15.768 136.062 15.768C136.663 15.768 137.235 15.6507 137.778 15.416C138.32 15.1667 138.753 14.8587 139.076 14.492ZM144.657 17V5.516H146.659L150.927 13.04L155.217 5.516H157.175V17H155.327V8.31L151.543 14.954H150.311L146.505 8.31V17H144.657ZM160.276 17V5.516H162.278L166.546 13.04L170.836 5.516H172.794V17H170.946V8.31L167.162 14.954H165.93L162.124 8.31V17H160.276ZM175.895 17V5.516H177.831V9.432H180.163C181.513 9.432 182.532 9.77667 183.221 10.466C183.925 11.1407 184.277 12.028 184.277 13.128C184.277 13.8613 184.123 14.5213 183.815 15.108C183.522 15.6947 183.082 16.1567 182.495 16.494C181.909 16.8313 181.175 17 180.295 17H175.895ZM177.831 15.482H180.031C180.574 15.482 181.007 15.3793 181.329 15.174C181.667 14.954 181.916 14.668 182.077 14.316C182.239 13.964 182.319 13.5827 182.319 13.172C182.319 12.776 182.246 12.4093 182.099 12.072C181.953 11.7347 181.711 11.4633 181.373 11.258C181.036 11.0527 180.574 10.95 179.987 10.95H177.831V15.482ZM186.257 17V5.538H188.193V17H186.257ZM196.864 17V5.516H198.866L203.134 13.04L207.424 5.516H209.382V17H207.534V8.31L203.75 14.954H202.518L198.712 8.31V17H196.864ZM212.483 17V5.516H214.419V10.268H220.403V5.516H222.339V17H220.403V11.984H214.419V17H212.483ZM230.542 17.22C229.677 17.22 228.885 17.066 228.166 16.758C227.462 16.4353 226.846 16.0027 226.318 15.46C225.805 14.9027 225.402 14.2647 225.108 13.546C224.83 12.8273 224.69 12.0647 224.69 11.258C224.69 10.1727 224.94 9.18267 225.438 8.288C225.937 7.39333 226.626 6.67467 227.506 6.132C228.401 5.58933 229.42 5.318 230.564 5.318C231.723 5.318 232.728 5.59667 233.578 6.154C234.444 6.69667 235.111 7.41533 235.58 8.31C236.064 9.19 236.306 10.1433 236.306 11.17C236.306 11.3167 236.299 11.4633 236.284 11.61C236.284 11.742 236.277 11.8447 236.262 11.918H226.736C226.795 12.666 227 13.3333 227.352 13.92C227.719 14.492 228.188 14.9467 228.76 15.284C229.332 15.6067 229.948 15.768 230.608 15.768C231.312 15.768 231.972 15.592 232.588 15.24C233.219 14.888 233.652 14.426 233.886 13.854L235.558 14.316C235.309 14.8733 234.935 15.372 234.436 15.812C233.952 16.252 233.373 16.5967 232.698 16.846C232.038 17.0953 231.32 17.22 230.542 17.22ZM226.67 10.576H234.502C234.444 9.828 234.231 9.168 233.864 8.596C233.498 8.024 233.028 7.57667 232.456 7.254C231.884 6.93133 231.254 6.77 230.564 6.77C229.89 6.77 229.266 6.93133 228.694 7.254C228.122 7.57667 227.653 8.024 227.286 8.596C226.934 9.168 226.729 9.828 226.67 10.576ZM244.001 17V5.516H245.937V10.268H251.921V5.516H253.857V17H251.921V11.984H245.937V17H244.001ZM258.193 21.818C257.944 21.818 257.687 21.7813 257.423 21.708C257.174 21.6347 256.917 21.5247 256.653 21.378L257.313 20.058C257.445 20.1313 257.57 20.1827 257.687 20.212C257.819 20.256 257.944 20.278 258.061 20.278C258.413 20.278 258.743 20.1093 259.051 19.772C259.374 19.4493 259.675 18.9507 259.953 18.276L260.503 16.89L255.465 5.516H257.511L261.383 15.042L264.881 5.516H266.795L261.427 18.87C261.163 19.53 260.863 20.0727 260.525 20.498C260.188 20.938 259.821 21.268 259.425 21.488C259.029 21.708 258.619 21.818 258.193 21.818ZM267.959 17L272.183 11.082L268.333 5.516H270.511L273.811 10.29H275.043V5.516H277.023V10.29H278.299L281.533 5.516H283.733L279.883 11.082L284.129 17H281.907L278.299 11.984H277.023V17H275.043V11.984H273.811L270.181 17H267.959ZM286.433 17V5.516H288.369V10.268H294.353V5.516H296.289V17H294.353V11.984H288.369V17H286.433ZM299.388 17V5.516H301.324V9.432H303.656C305.005 9.432 306.024 9.77667 306.714 10.466C307.418 11.1407 307.77 12.028 307.77 13.128C307.77 13.8613 307.616 14.5213 307.308 15.108C307.014 15.6947 306.574 16.1567 305.988 16.494C305.401 16.8313 304.668 17 303.788 17H299.388ZM301.324 15.482H303.524C304.066 15.482 304.499 15.3793 304.822 15.174C305.159 14.954 305.408 14.668 305.57 14.316C305.731 13.964 305.812 13.5827 305.812 13.172C305.812 12.776 305.738 12.4093 305.592 12.072C305.445 11.7347 305.203 11.4633 304.866 11.258C304.528 11.0527 304.066 10.95 303.48 10.95H301.324V15.482ZM309.75 17V5.538H311.686V17H309.75ZM319.102 19.706V15.284H319.344C319.667 15.284 319.96 15.1887 320.224 14.998C320.503 14.8073 320.745 14.4773 320.95 14.008C321.17 13.524 321.346 12.864 321.478 12.028C321.61 11.192 321.698 10.1287 321.742 8.838L321.852 5.516H329.662V15.284H331.224V19.706H329.508V17H320.818V19.706H319.102ZM322.05 15.284H327.726V7.232H323.568L323.502 9.014C323.458 10.2607 323.37 11.3093 323.238 12.16C323.121 12.996 322.96 13.6633 322.754 14.162C322.564 14.6607 322.329 15.0347 322.05 15.284ZM332.364 17.088V15.35C332.746 15.35 333.083 15.2547 333.376 15.064C333.684 14.8587 333.956 14.5213 334.19 14.052C334.425 13.568 334.608 12.908 334.74 12.072C334.887 11.2213 334.982 10.1433 335.026 8.838L335.158 5.516H342.968V17H341.032V7.232H336.874L336.83 9.014C336.772 10.5833 336.64 11.8887 336.434 12.93C336.229 13.9713 335.943 14.7927 335.576 15.394C335.21 15.9953 334.755 16.428 334.212 16.692C333.684 16.956 333.068 17.088 332.364 17.088ZM345.237 17L348.493 12.38C347.745 12.2333 347.144 11.8813 346.689 11.324C346.235 10.752 346.007 9.98933 346.007 9.036C346.007 8.34667 346.169 7.738 346.491 7.21C346.814 6.682 347.261 6.264 347.833 5.956C348.42 5.648 349.102 5.494 349.879 5.494H354.587V17H352.651V12.688H350.407L347.371 17H345.237ZM350.011 11.258H352.651V7.012H350.231C349.542 7.012 348.992 7.21 348.581 7.606C348.171 7.98733 347.965 8.47867 347.965 9.08C347.965 9.68133 348.134 10.1947 348.471 10.62C348.823 11.0453 349.337 11.258 350.011 11.258ZM368.299 17.22C367.433 17.22 366.649 17.066 365.945 16.758C365.241 16.4353 364.632 16.0027 364.119 15.46C363.605 14.9027 363.209 14.2647 362.931 13.546C362.652 12.8273 362.513 12.072 362.513 11.28C362.513 10.4733 362.652 9.71067 362.931 8.992C363.209 8.27333 363.605 7.64267 364.119 7.1C364.632 6.54267 365.241 6.11 365.945 5.802C366.663 5.47933 367.448 5.318 368.299 5.318C369.164 5.318 369.949 5.47933 370.653 5.802C371.357 6.11 371.965 6.54267 372.479 7.1C373.007 7.64267 373.41 8.27333 373.689 8.992C373.967 9.71067 374.107 10.4733 374.107 11.28C374.107 12.072 373.967 12.8273 373.689 13.546C373.41 14.2647 373.014 14.9027 372.501 15.46C371.987 16.0027 371.371 16.4353 370.653 16.758C369.949 17.066 369.164 17.22 368.299 17.22ZM364.493 11.302C364.493 12.094 364.661 12.8127 364.999 13.458C365.351 14.1033 365.813 14.6167 366.385 14.998C366.957 15.3647 367.595 15.548 368.299 15.548C369.003 15.548 369.641 15.3573 370.213 14.976C370.799 14.5947 371.261 14.0813 371.599 13.436C371.951 12.776 372.127 12.05 372.127 11.258C372.127 10.466 371.951 9.74733 371.599 9.102C371.261 8.45667 370.799 7.94333 370.213 7.562C369.641 7.18067 369.003 6.99 368.299 6.99C367.595 6.99 366.957 7.188 366.385 7.584C365.813 7.96533 365.351 8.47867 364.999 9.124C364.661 9.76933 364.493 10.4953 364.493 11.302ZM381.865 17.22C379.973 17.22 378.543 16.648 377.575 15.504C376.607 14.36 376.123 12.7467 376.123 10.664C376.123 9.24133 376.24 8.046 376.475 7.078C376.709 6.09533 377.061 5.28867 377.531 4.658C378 4.01267 378.579 3.492 379.269 3.096C379.958 2.68533 380.75 2.348 381.645 2.084L386.507 0.609999L386.617 2.282L381.887 3.712C381.08 3.976 380.405 4.31333 379.863 4.724C379.32 5.13467 378.895 5.66267 378.587 6.308C378.279 6.95333 378.073 7.782 377.971 8.794C378.352 8.01667 378.924 7.41533 379.687 6.99C380.449 6.55 381.337 6.33 382.349 6.33C383.434 6.33 384.365 6.55733 385.143 7.012C385.935 7.452 386.536 8.07533 386.947 8.882C387.372 9.674 387.585 10.5907 387.585 11.632C387.585 12.7467 387.365 13.722 386.925 14.558C386.485 15.394 385.839 16.0467 384.989 16.516C384.138 16.9853 383.097 17.22 381.865 17.22ZM381.865 15.548C383.053 15.548 383.969 15.2033 384.615 14.514C385.275 13.81 385.605 12.8787 385.605 11.72C385.605 10.5907 385.282 9.674 384.637 8.97C383.991 8.266 383.067 7.914 381.865 7.914C381.161 7.914 380.523 8.06067 379.951 8.354C379.393 8.64733 378.946 9.08 378.609 9.652C378.286 10.2093 378.125 10.8987 378.125 11.72C378.125 12.4533 378.264 13.1133 378.543 13.7C378.836 14.272 379.261 14.7267 379.819 15.064C380.376 15.3867 381.058 15.548 381.865 15.548ZM390.967 21.818C390.717 21.818 390.461 21.7813 390.197 21.708C389.947 21.6347 389.691 21.5247 389.427 21.378L390.087 20.058C390.219 20.1313 390.343 20.1827 390.461 20.212C390.593 20.256 390.717 20.278 390.835 20.278C391.187 20.278 391.517 20.1093 391.825 19.772C392.147 19.4493 392.448 18.9507 392.727 18.276L393.277 16.89L388.239 5.516H390.285L394.157 15.042L397.655 5.516H399.569L394.201 18.87C393.937 19.53 393.636 20.0727 393.299 20.498C392.961 20.938 392.595 21.268 392.199 21.488C391.803 21.708 391.392 21.818 390.967 21.818ZM408.037 17V12.402C407.582 12.622 407.106 12.7833 406.607 12.886C406.123 12.9887 405.588 13.04 405.001 13.04C403.754 13.04 402.801 12.7173 402.141 12.072C401.496 11.412 401.173 10.4293 401.173 9.124V5.516H403.109V8.86C403.109 9.784 403.3 10.4587 403.681 10.884C404.062 11.3093 404.671 11.522 405.507 11.522C405.976 11.522 406.438 11.4707 406.893 11.368C407.362 11.2653 407.744 11.126 408.037 10.95V5.516H409.995V17H408.037ZM418.208 17.22C417.343 17.22 416.551 17.066 415.832 16.758C415.128 16.4353 414.512 16.0027 413.984 15.46C413.471 14.9027 413.068 14.2647 412.774 13.546C412.496 12.8273 412.356 12.0647 412.356 11.258C412.356 10.1727 412.606 9.18267 413.104 8.288C413.603 7.39333 414.292 6.67467 415.172 6.132C416.067 5.58933 417.086 5.318 418.23 5.318C419.389 5.318 420.394 5.59667 421.244 6.154C422.11 6.69667 422.777 7.41533 423.246 8.31C423.73 9.19 423.972 10.1433 423.972 11.17C423.972 11.3167 423.965 11.4633 423.95 11.61C423.95 11.742 423.943 11.8447 423.928 11.918H414.402C414.461 12.666 414.666 13.3333 415.018 13.92C415.385 14.492 415.854 14.9467 416.426 15.284C416.998 15.6067 417.614 15.768 418.274 15.768C418.978 15.768 419.638 15.592 420.254 15.24C420.885 14.888 421.318 14.426 421.552 13.854L423.224 14.316C422.975 14.8733 422.601 15.372 422.102 15.812C421.618 16.252 421.039 16.5967 420.364 16.846C419.704 17.0953 418.986 17.22 418.208 17.22ZM414.336 10.576H422.168C422.11 9.828 421.897 9.168 421.53 8.596C421.164 8.024 420.694 7.57667 420.122 7.254C419.55 6.93133 418.92 6.77 418.23 6.77C417.556 6.77 416.932 6.93133 416.36 7.254C415.788 7.57667 415.319 8.024 414.952 8.596C414.6 9.168 414.395 9.828 414.336 10.576ZM426.103 17V5.516H428.039V10.268H434.023V5.516H435.959V17H434.023V11.984H428.039V17H426.103ZM439.058 17V5.538H440.994V14.404L447.418 5.516H449.178V17H447.242V8.31L440.906 17H439.058ZM451.413 17L454.669 12.38C453.921 12.2333 453.32 11.8813 452.865 11.324C452.41 10.752 452.183 9.98933 452.183 9.036C452.183 8.34667 452.344 7.738 452.667 7.21C452.99 6.682 453.437 6.264 454.009 5.956C454.596 5.648 455.278 5.494 456.055 5.494H460.763V17H458.827V12.688H456.583L453.547 17H451.413ZM456.187 11.258H458.827V7.012H456.407C455.718 7.012 455.168 7.21 454.757 7.606C454.346 7.98733 454.141 8.47867 454.141 9.08C454.141 9.68133 454.31 10.1947 454.647 10.62C454.999 11.0453 455.512 11.258 456.187 11.258ZM465.5 12.358C465.5 11.83 465.559 11.346 465.676 10.906C465.808 10.466 466.006 10.07 466.27 9.718C466.549 9.35133 466.908 9.02867 467.348 8.75C467.612 8.574 467.913 8.39067 468.25 8.2C468.602 8.00933 468.932 7.78933 469.24 7.54C469.563 7.276 469.827 6.968 470.032 6.616C470.237 6.24933 470.34 5.81667 470.34 5.318C470.34 4.76067 470.208 4.29867 469.944 3.932C469.695 3.55067 469.365 3.26467 468.954 3.074C468.543 2.88333 468.103 2.788 467.634 2.788C467.15 2.788 466.695 2.88333 466.27 3.074C465.845 3.26467 465.471 3.52133 465.148 3.844C464.84 4.152 464.583 4.49667 464.378 4.878L463.08 4.02C463.344 3.41867 463.711 2.90533 464.18 2.48C464.664 2.05467 465.207 1.732 465.808 1.512C466.409 1.292 467.033 1.182 467.678 1.182C468.221 1.182 468.749 1.27 469.262 1.446C469.79 1.60733 470.259 1.864 470.67 2.216C471.095 2.568 471.433 3.008 471.682 3.536C471.931 4.064 472.056 4.68733 472.056 5.406C472.056 5.96333 471.983 6.44 471.836 6.836C471.689 7.232 471.484 7.57667 471.22 7.87C470.971 8.16333 470.677 8.42 470.34 8.64C470.003 8.86 469.651 9.07267 469.284 9.278C468.932 9.46867 468.587 9.68133 468.25 9.916C467.927 10.1507 467.656 10.4587 467.436 10.84C467.231 11.2067 467.128 11.7127 467.128 12.358H465.5ZM465.544 17V14.448H467.172V17H465.544Z" fill="#353A5A"/>
</svg>
